# xmcd CD database file
#
# Track frame offsets:
#	150
#	17325
#	34337
#	50995
#	69745
#	87595
#	107667
#	126692
#	151472
#	168567
#	186260
#	202177
#
# Disc length: 2926 seconds
#
# Revision: 3
# Processed by: cddbd v1.4PL0 Copyright (c) Steve Scherf et al.
# Submitted via: Gronk 1.4
#
DISCID=ac0b6c0c,b80b6c0c
DTITLE=Millie Scott - I Can Make It Good For You
DYEAR=1900
DGENRE=blues
TTITLE0=I Can Make It Good For You
TTITLE1=Maybe Tonight
TTITLE2=It's My Life
TTITLE3=Keep It To Yourself
TTITLE4=I Wanna Be Yours
TTITLE5=To The Letter
TTITLE6=A Love Of Your Own
TTITLE7=Heaven
TTITLE8=The Key
TTITLE9=Fallin' In Love
TTITLE10=I Wanna Be The One
TTITLE11=A Better Love
EXTD=
EXTT0=
EXTT1=
EXTT2=
EXTT3=
EXTT4=
EXTT5=
EXTT6=
EXTT7=
EXTT8=
EXTT9=
EXTT10=
EXTT11=
PLAYORDER=
